<svg width="257" height="190" viewBox="0 0 257 190" fill="none" xmlns="http://www.w3.org/2000/svg">
<path d="M120.5 190C176.557 190 222 187.985 222 185.5C222 183.015 176.557 181 120.5 181C64.4431 181 19 183.015 19 185.5C19 187.985 64.4431 190 120.5 190Z" fill="#F2F2F2"/>
<path d="M180 44.2005H178.843V16.2038C178.843 11.9063 176.91 7.78478 173.47 4.74599C170.03 1.70719 165.363 4.74477e-06 160.498 0H93.345C88.4796 -8.13383e-06 83.8135 1.70716 80.3732 4.74595C76.9328 7.78473 75 11.9062 75 16.2037V169.796C75 174.094 76.9328 178.215 80.3731 181.254C83.8135 184.293 88.4796 186 93.345 186H160.498C165.363 186 170.029 184.293 173.47 181.254C176.91 178.215 178.843 174.094 178.843 169.796V64.1291H180L180 44.2005Z" fill="#686869"/>
<path d="M175 16.0626V168.937C175 172.137 173.555 175.205 170.982 177.467C168.409 179.729 164.92 181 161.282 181H93.7184C90.08 181 86.5908 179.729 84.0181 177.467C81.4454 175.205 80.0001 172.137 80 168.937V16.0626C80.0001 12.8634 81.4454 9.79527 84.0181 7.53311C86.5908 5.27095 90.08 4.00006 93.7184 4H101.915C101.512 4.87023 101.358 5.81415 101.468 6.74873C101.577 7.68331 101.946 8.57992 102.543 9.35967C103.139 10.1394 103.943 10.7784 104.886 11.2205C105.829 11.6626 106.881 11.8941 107.95 11.8948H146.471C147.54 11.8941 148.591 11.6625 149.534 11.2205C150.477 10.7784 151.282 10.1394 151.878 9.35965C152.474 8.5799 152.843 7.6833 152.953 6.74873C153.062 5.81415 152.909 4.87023 152.506 4H161.282C164.92 4.00006 168.409 5.27095 170.982 7.53311C173.555 9.79527 175 12.8634 175 16.0626Z" fill="white"/>
<path d="M153 82.2522C152.551 82.471 152.095 82.6782 151.63 82.8736C151.208 83.0519 150.778 83.2195 150.342 83.3762C150.183 83.4329 150.021 83.4896 149.859 83.5464C148.577 83.9803 147.26 84.319 145.921 84.5596C145.258 84.6812 144.587 84.7766 143.906 84.846C143.345 84.9054 142.777 84.9478 142.204 84.973C141.796 84.9919 141.387 85 140.976 85C139.348 85.0006 137.724 84.8586 136.124 84.5758C135.707 84.5056 135.299 84.4218 134.89 84.3299C132.916 83.8883 131.004 83.2298 129.196 82.3684C129.034 82.2927 128.871 82.2116 128.709 82.1333C128.469 82.0144 128.235 81.8901 128 81.7604C128.113 81.6145 128.235 81.4713 128.359 81.3308C129.714 79.764 131.407 78.4812 133.329 77.5661C135.25 76.6509 137.357 76.1238 139.511 76.0193C141.666 75.9148 143.819 76.2351 145.832 76.9595C147.845 77.6838 149.672 78.7958 151.193 80.2231C151.721 80.7176 152.211 81.2467 152.658 81.8064C152.777 81.9523 152.89 82.1009 153 82.2522Z" fill="#FFCA28"/>
<path d="M141.5 71C148.404 71 154 66.0751 154 60C154 53.9249 148.404 49 141.5 49C134.596 49 129 53.9249 129 60C129 66.0751 134.596 71 141.5 71Z" fill="#2F2E41"/>
<path d="M145.015 71.0685C149.573 68.8611 151.249 63.7982 148.757 59.7602C146.265 55.7223 140.549 54.2382 135.991 56.4456C131.433 58.653 129.757 63.7158 132.249 67.7538C134.741 71.7918 140.456 73.2758 145.015 71.0685Z" fill="#A0616A"/>
<path d="M150 58.4046C147.891 59.7001 145.387 60.3895 142.825 60.3804C143.739 60.945 144.779 61.3264 145.874 61.4983C142.468 62.1493 138.948 62.167 135.533 61.5501C134.774 61.4416 134.042 61.2175 133.368 60.8876C133.033 60.7205 132.74 60.4924 132.51 60.2181C132.28 59.9438 132.117 59.6293 132.032 59.2952C131.805 58.1404 132.815 57.0911 133.865 56.384C135.472 55.3179 137.325 54.5833 139.289 54.2335C141.254 53.8837 143.281 53.9274 145.225 54.3614C146.494 54.6536 147.765 55.1474 148.589 56.0555C149.413 56.9635 149.657 58.3634 148.872 59.2984L150 58.4046Z" fill="#2F2E41"/>
<path d="M141 39C135.33 38.9993 129.815 40.6386 125.295 43.6681C120.776 46.6975 117.501 50.9511 115.968 55.7804C114.435 60.6096 114.729 65.7498 116.806 70.4174C118.882 75.085 122.626 79.0241 127.468 81.6343L127.636 81.7212C127.775 81.7953 127.913 81.8669 128.052 81.9359C128.286 82.0586 128.52 82.1761 128.76 82.2886C128.922 82.3627 129.083 82.4393 129.245 82.5109C131.05 83.3257 132.957 83.9485 134.928 84.3662C135.335 84.4531 135.742 84.5323 136.158 84.5988C137.754 84.8663 139.375 85.0006 141 85C141.41 85 141.818 84.9923 142.225 84.9744C142.797 84.9514 143.363 84.9114 143.924 84.8543C144.602 84.7879 145.273 84.6976 145.934 84.5834C147.27 84.3559 148.584 84.0355 149.863 83.6251C150.025 83.5714 150.187 83.5178 150.346 83.4641C150.782 83.3159 151.21 83.1574 151.631 82.9888C152.093 82.8048 152.549 82.6089 152.998 82.401C157.495 80.3175 161.212 77.1243 163.698 73.2087C163.71 73.1882 163.724 73.1678 163.736 73.1473C165.062 71.0419 166.003 68.764 166.523 66.3981C167.254 63.0676 167.143 59.6353 166.199 56.347C165.255 53.0587 163.5 49.9958 161.061 47.3776C158.622 44.7594 155.559 42.6506 152.091 41.2023C148.623 39.754 144.835 39.0019 141 39H141ZM163.262 72.8483C163.239 72.8841 163.218 72.9199 163.195 72.9531C160.759 76.8109 157.094 79.9498 152.657 81.9793C152.215 82.1838 151.765 82.3754 151.308 82.5543C150.929 82.7051 150.542 82.8482 150.152 82.9811C149.987 83.0373 149.82 83.0936 149.652 83.1447C148.547 83.5017 147.415 83.7887 146.264 84.0033C145.41 84.1642 144.546 84.2845 143.678 84.3637C143.144 84.4148 142.6 84.4506 142.054 84.4684C141.705 84.4812 141.352 84.4889 141 84.4889C139.428 84.4905 137.859 84.3613 136.314 84.103C135.375 83.9497 134.446 83.7483 133.532 83.4999C132.141 83.1196 130.789 82.6349 129.491 82.0509C129.34 81.9819 129.19 81.9129 129.043 81.8413C128.832 81.7417 128.618 81.6394 128.41 81.5296C128.254 81.4529 128.098 81.3711 127.945 81.2893C127.856 81.2433 127.766 81.1948 127.676 81.1462C123.431 78.8399 120.045 75.4818 117.937 71.4884C115.83 67.495 115.094 63.0421 115.821 58.6822C116.548 54.3223 118.707 50.2472 122.028 46.9625C125.35 43.6777 129.688 41.3279 134.506 40.2046C139.323 39.0813 144.407 39.2338 149.128 40.6433C153.848 42.0529 157.996 44.6573 161.059 48.1336C164.121 51.6098 165.962 55.8049 166.354 60.1984C166.745 64.5919 165.67 68.9905 163.262 72.8483H163.262Z" fill="#686869"/>
<path d="M135.306 48.6887C135.161 47.4744 133.291 46.7269 131.828 47.0937C130.366 47.4605 129.406 48.6318 129.115 49.8295C128.976 50.3339 128.963 50.8553 129.077 51.3637C129.191 51.8722 129.43 52.3577 129.781 52.7925C130.52 53.6387 131.879 54.1669 133.146 53.952C134.592 53.7068 135.594 52.5834 135.881 51.4293C136.167 50.2753 135.883 49.0855 135.599 47.9311L135.306 48.6887Z" fill="#2F2E41"/>
<path d="M154.405 50.6887C154.281 49.4744 152.678 48.7269 151.424 49.0937C150.171 49.4605 149.348 50.6318 149.099 51.8295C148.979 52.3339 148.968 52.8553 149.066 53.3637C149.164 53.8722 149.369 54.3577 149.669 54.7925C150.303 55.6387 151.467 56.1669 152.553 55.952C153.793 55.7068 154.652 54.5834 154.898 53.4293C155.144 52.2753 154.9 51.0855 154.656 49.9311L154.405 50.6887Z" fill="#2F2E41"/>
<path d="M95.9202 71C95.7417 70.9998 95.5651 70.9669 95.4019 70.9032C95.2387 70.8395 95.0923 70.7465 94.9722 70.6301L80.7463 56.9576C80.5849 56.8028 80.3888 56.6791 80.1703 56.5945C79.9519 56.5098 79.716 56.466 79.4774 56.4657H4.30294C3.16212 56.4646 2.06839 56.0648 1.26171 55.3541C0.455035 54.6435 0.00128085 53.6799 0 52.6748V28.7909C0.00128009 27.7859 0.455034 26.8223 1.26171 26.1116C2.06839 25.4009 3.16212 25.0011 4.30294 25H101.697C102.838 25.0011 103.932 25.4009 104.738 26.1116C105.545 26.8223 105.999 27.7859 106 28.7909V52.6748C105.999 53.6799 105.545 54.6435 104.738 55.3542C103.932 56.0649 102.838 56.4646 101.697 56.4657H98.9359C98.4795 56.4662 98.0419 56.6261 97.7192 56.9105C97.3965 57.1948 97.215 57.5803 97.2145 57.9824V69.8617C97.2156 70.091 97.1375 70.3152 96.9905 70.5045C96.8435 70.6938 96.6347 70.8392 96.3916 70.9214C96.2414 70.9732 96.0815 70.9999 95.9202 71Z" fill="white"/>
<path d="M95.9202 71C95.7417 70.9998 95.5651 70.9669 95.4019 70.9032C95.2387 70.8395 95.0923 70.7465 94.9722 70.6301L80.7463 56.9576C80.5849 56.8028 80.3888 56.6791 80.1703 56.5945C79.9519 56.5098 79.716 56.466 79.4774 56.4657H4.30294C3.16212 56.4646 2.06839 56.0648 1.26171 55.3541C0.455035 54.6435 0.00128085 53.6799 0 52.6748V28.7909C0.00128009 27.7859 0.455034 26.8223 1.26171 26.1116C2.06839 25.4009 3.16212 25.0011 4.30294 25H101.697C102.838 25.0011 103.932 25.4009 104.738 26.1116C105.545 26.8223 105.999 27.7859 106 28.7909V52.6748C105.999 53.6799 105.545 54.6435 104.738 55.3542C103.932 56.0649 102.838 56.4646 101.697 56.4657H98.9359C98.4795 56.4662 98.0419 56.6261 97.7192 56.9105C97.3965 57.1948 97.215 57.5803 97.2145 57.9824V69.8617C97.2156 70.091 97.1375 70.3152 96.9905 70.5045C96.8435 70.6938 96.6347 70.8392 96.3916 70.9214C96.2414 70.9732 96.0815 70.9999 95.9202 71ZM4.30294 25.5051C3.31414 25.5061 2.36615 25.8526 1.66696 26.4686C0.967777 27.0846 0.574486 27.9198 0.57337 28.7909V52.6748C0.574488 53.5459 0.967782 54.3811 1.66697 54.9971C2.36616 55.6131 3.31414 55.9596 4.30294 55.9606H79.4774C79.7954 55.9609 80.11 56.0193 80.4011 56.1322C80.6923 56.245 80.9537 56.4098 81.1689 56.6162L95.3948 70.2888C95.4925 70.3826 95.6201 70.4483 95.7609 70.4772C95.9016 70.5061 96.049 70.4969 96.1837 70.4507C96.3184 70.4045 96.4342 70.3236 96.5158 70.2185C96.5974 70.1134 96.6411 69.989 96.6411 69.8617V57.9824C96.6418 57.4464 96.8837 56.9325 97.314 56.5534C97.7442 56.1744 98.3275 55.9612 98.9359 55.9606H101.697C102.686 55.9596 103.634 55.6131 104.333 54.9971C105.032 54.3811 105.425 53.5459 105.427 52.6748V28.7909C105.425 27.9198 105.032 27.0846 104.333 26.4686C103.634 25.8526 102.686 25.5061 101.697 25.5051H4.30294Z" fill="#686869"/>
<path d="M10.5 35C12.433 35 14 33.6569 14 32C14 30.3431 12.433 29 10.5 29C8.567 29 7 30.3431 7 32C7 33.6569 8.567 35 10.5 35Z" fill="#FFCA28"/>
<path d="M97.9862 50H9.01867C8.75369 50.0002 8.49125 49.9616 8.24634 49.8863C8.00144 49.8111 7.77889 49.7006 7.5914 49.5613C7.40392 49.422 7.25519 49.2565 7.15371 49.0744C7.05223 48.8923 7 48.6971 7 48.5C7 48.3029 7.05223 48.1077 7.15371 47.9256C7.25519 47.7435 7.40392 47.578 7.5914 47.4387C7.77889 47.2994 8.00144 47.1889 8.24634 47.1137C8.49125 47.0384 8.75369 46.9998 9.01867 47H97.9862C98.5205 47.0005 99.0327 47.1587 99.4103 47.44C99.7879 47.7212 100 48.1025 100 48.5C100 48.8975 99.7879 49.2788 99.4103 49.56C99.0327 49.8413 98.5205 49.9995 97.9862 50Z" fill="#E6E6E6"/>
<path d="M68.9843 43H9.01808C8.75318 43.0003 8.49081 42.9488 8.24598 42.8484C8.00115 42.7481 7.77866 42.6008 7.59123 42.4151C7.4038 42.2293 7.25511 42.0087 7.15366 41.7659C7.05222 41.5231 7 41.2628 7 41C7 40.7372 7.05222 40.4769 7.15366 40.2341C7.25511 39.9913 7.4038 39.7707 7.59123 39.5849C7.77866 39.3992 8.00115 39.2519 8.24598 39.1516C8.49081 39.0512 8.75318 38.9997 9.01808 39H68.9843C69.5189 39 70.0316 39.2107 70.4096 39.5858C70.7876 39.9609 71 40.4696 71 41C71 41.5304 70.7876 42.0391 70.4096 42.4142C70.0316 42.7893 69.5189 43 68.9843 43Z" fill="#E6E6E6"/>
<path d="M159.699 152.92C159.454 152.836 159.243 152.687 159.094 152.494C158.946 152.3 158.867 152.071 158.868 151.837V139.699C158.868 139.289 158.685 138.895 158.359 138.604C158.033 138.314 157.591 138.15 157.131 138.15H154.344C153.192 138.149 152.088 137.74 151.274 137.014C150.459 136.288 150.001 135.303 150 134.276V109.873C150.001 108.846 150.459 107.862 151.274 107.136C152.088 106.41 153.192 106.001 154.344 106H252.656C253.808 106.001 254.912 106.41 255.726 107.136C256.541 107.862 256.999 108.846 257 109.873V134.276C256.999 135.303 256.541 136.288 255.726 137.014C254.912 137.74 253.808 138.149 252.656 138.15H176.773C176.532 138.15 176.294 138.195 176.073 138.281C175.853 138.368 175.655 138.494 175.492 138.652L161.132 152.622C161.011 152.741 160.863 152.836 160.698 152.901C160.533 152.966 160.355 153 160.175 153C160.012 153 159.851 152.973 159.699 152.92Z" fill="white"/>
<path d="M159.699 152.92C159.454 152.836 159.243 152.687 159.094 152.494C158.946 152.3 158.867 152.071 158.868 151.837V139.699C158.868 139.289 158.685 138.895 158.359 138.604C158.033 138.314 157.591 138.15 157.131 138.15H154.344C153.192 138.149 152.088 137.74 151.274 137.014C150.459 136.288 150.001 135.303 150 134.276V109.873C150.001 108.846 150.459 107.862 151.274 107.136C152.088 106.41 153.192 106.001 154.344 106H252.656C253.808 106.001 254.912 106.41 255.726 107.136C256.541 107.862 256.999 108.846 257 109.873V134.276C256.999 135.303 256.541 136.288 255.726 137.014C254.912 137.74 253.808 138.149 252.656 138.15H176.773C176.532 138.15 176.294 138.195 176.073 138.281C175.853 138.368 175.655 138.494 175.492 138.652L161.132 152.622C161.011 152.741 160.863 152.836 160.698 152.901C160.533 152.966 160.355 153 160.175 153C160.012 153 159.851 152.973 159.699 152.92ZM154.344 106.516C153.345 106.517 152.388 106.871 151.683 107.501C150.977 108.13 150.58 108.983 150.579 109.873V134.276C150.58 135.167 150.977 136.02 151.683 136.649C152.388 137.279 153.345 137.633 154.344 137.634H157.131C157.745 137.634 158.334 137.852 158.768 138.239C159.202 138.627 159.447 139.152 159.447 139.699V151.837C159.447 151.967 159.491 152.094 159.574 152.202C159.656 152.309 159.773 152.392 159.909 152.439C160.045 152.486 160.194 152.495 160.336 152.466C160.478 152.436 160.607 152.369 160.705 152.273L175.065 138.304C175.283 138.093 175.546 137.924 175.84 137.809C176.134 137.694 176.452 137.634 176.773 137.634H252.656C253.655 137.633 254.612 137.279 255.317 136.649C256.023 136.02 256.42 135.167 256.421 134.276V109.873C256.42 108.983 256.023 108.13 255.317 107.501C254.612 106.871 253.655 106.517 252.656 106.516H154.344Z" fill="#686869"/>
<path d="M129 160.224C124.983 162.62 120.33 163.926 115.561 163.997C110.792 164.068 106.096 162.9 102 160.624C102.721 159.375 103.634 158.23 104.71 157.227C106.371 155.673 108.393 154.493 110.619 153.78C112.846 153.067 115.218 152.838 117.554 153.113C119.891 153.387 122.128 154.156 124.095 155.361C126.062 156.567 127.707 158.176 128.902 160.066C128.934 160.117 128.968 160.17 129 160.224Z" fill="#FFCA28"/>
<path d="M114.5 148C121.404 148 127 143.075 127 137C127 130.925 121.404 126 114.5 126C107.596 126 102 130.925 102 137C102 143.075 107.596 148 114.5 148Z" fill="#2F2E41"/>
<path d="M124.149 144.787C126.658 140.722 124.971 135.626 120.383 133.404C115.794 131.182 110.041 132.676 107.532 136.741C105.024 140.805 106.71 145.902 111.299 148.124C115.888 150.346 121.641 148.852 124.149 144.787Z" fill="#FFB8B8"/>
<path d="M106 135.405C108.109 136.7 110.613 137.39 113.175 137.38C112.261 137.945 111.221 138.326 110.126 138.498C113.532 139.149 117.052 139.167 120.467 138.55C121.226 138.442 121.958 138.218 122.632 137.888C122.967 137.721 123.26 137.492 123.49 137.218C123.72 136.944 123.883 136.629 123.968 136.295C124.195 135.14 123.185 134.091 122.135 133.384C120.528 132.318 118.675 131.583 116.711 131.234C114.746 130.884 112.719 130.927 110.775 131.361C109.506 131.654 108.235 132.147 107.411 133.055C106.587 133.964 106.343 135.363 107.128 136.298L106 135.405Z" fill="#2F2E41"/>
<path d="M115.492 164C109.357 163.998 103.428 162.001 98.7927 158.376C94.1576 154.75 91.1273 149.738 90.2576 144.26C89.3878 138.782 90.737 133.205 94.0576 128.552C97.3782 123.899 102.448 120.481 108.336 118.926C114.224 117.372 120.536 117.784 126.115 120.087C131.693 122.391 136.164 126.432 138.707 131.468C141.25 136.504 141.694 142.198 139.958 147.506C138.223 152.814 134.424 157.379 129.258 160.365C125.15 162.741 120.372 164.003 115.492 164ZM115.492 118.497C110.559 118.497 105.736 119.816 101.633 122.288C97.5311 124.76 94.3337 128.273 92.4455 132.384C90.5573 136.495 90.0631 141.019 91.0255 145.384C91.9879 149.748 94.3636 153.757 97.8521 156.903C101.341 160.05 105.785 162.193 110.624 163.061C115.463 163.929 120.478 163.483 125.036 161.78C129.594 160.077 133.49 157.193 136.23 153.493C138.971 149.793 140.434 145.443 140.433 140.993C140.426 135.029 137.796 129.311 133.12 125.093C128.444 120.876 122.105 118.504 115.492 118.497Z" fill="#686869"/>
<path d="M162.5 117C164.433 117 166 115.433 166 113.5C166 111.567 164.433 110 162.5 110C160.567 110 159 111.567 159 113.5C159 115.433 160.567 117 162.5 117Z" fill="#FFCA28"/>
<path d="M248.984 132H160.019C159.754 132 159.491 131.949 159.246 131.848C159.001 131.748 158.779 131.601 158.591 131.415C158.404 131.229 158.255 131.009 158.154 130.766C158.052 130.523 158 130.263 158 130C158 129.737 158.052 129.477 158.154 129.234C158.255 128.991 158.404 128.771 158.591 128.585C158.779 128.399 159.001 128.252 159.246 128.152C159.491 128.051 159.754 128 160.019 128H248.984C249.519 128 250.031 128.211 250.409 128.586C250.788 128.961 251 129.47 251 130C251 130.53 250.788 131.039 250.409 131.414C250.031 131.789 249.519 132 248.984 132Z" fill="#E6E6E6"/>
<path d="M219.987 124H160.018C159.753 124 159.491 123.962 159.246 123.886C159.001 123.811 158.779 123.701 158.591 123.561C158.404 123.422 158.255 123.257 158.154 123.074C158.052 122.892 158 122.697 158 122.5C158 122.303 158.052 122.108 158.154 121.926C158.255 121.743 158.404 121.578 158.591 121.439C158.779 121.299 159.001 121.189 159.246 121.114C159.491 121.038 159.753 121 160.018 121H219.987C220.521 121 221.033 121.159 221.41 121.44C221.788 121.721 222 122.102 222 122.5C222 122.898 221.788 123.279 221.41 123.56C221.033 123.841 220.521 124 219.987 124Z" fill="#E6E6E6"/>
<path d="M160 155C163.866 155 167 154.776 167 154.5C167 154.224 163.866 154 160 154C156.134 154 153 154.224 153 154.5C153 154.776 156.134 155 160 155Z" fill="#F2F2F2"/>
<path d="M97 74C100.866 74 104 73.5523 104 73C104 72.4477 100.866 72 97 72C93.134 72 90 72.4477 90 73C90 73.5523 93.134 74 97 74Z" fill="#F2F2F2"/>
</svg>
