<svg width="42" height="39" viewBox="0 0 42 39" fill="none" xmlns="http://www.w3.org/2000/svg">
<path d="M0.5 24.1069V2.97612L9.5 9.45612V29.1469L0.5 24.1069Z" stroke="#FFFEFD"/>
<path d="M11.1605 8.52456L31.8602 8.5018L21.5381 1.57571L2.01366 1.96964L11.1605 8.52456Z" stroke="#FFFEFD"/>
<path d="M11.7658 19.9973L11.8705 10.7961L22.5302 10.6766L34.0653 10.5472L33.8627 28.3238L22.7615 32.9041L11.6456 30.5624L11.7658 19.9973Z" stroke="#FFCA28" stroke-opacity="0.49" stroke-width="0.4"/>
<path d="M11.4193 18.9764L11.5128 10.0738L21.8614 9.96649L33.0722 9.85021L32.8904 27.1135L22.0802 31.5708L11.3108 29.2908L11.4193 18.9764Z" fill="#FFFEFD" stroke="#FFFEFD"/>
<path d="M24.0898 23.4648C24.0898 22.8633 23.875 22.3945 23.4453 22.0586C23.0234 21.7227 22.2773 21.375 21.207 21.0156C20.1367 20.6562 19.2617 20.3086 18.582 19.9727C16.3711 18.8867 15.2656 17.3945 15.2656 15.4961C15.2656 14.5508 15.5391 13.7188 16.0859 13C16.6406 12.2734 17.4219 11.7109 18.4297 11.3125C19.4375 10.9062 20.5703 10.7031 21.8281 10.7031C23.0547 10.7031 24.1523 10.9219 25.1211 11.3594C26.0977 11.7969 26.8555 12.4219 27.3945 13.2344C27.9336 14.0391 28.2031 14.9609 28.2031 16H24.1016C24.1016 15.3047 23.8867 14.7656 23.457 14.3828C23.0352 14 22.4609 13.8086 21.7344 13.8086C21 13.8086 20.418 13.9727 19.9883 14.3008C19.5664 14.6211 19.3555 15.0312 19.3555 15.5312C19.3555 15.9688 19.5898 16.3672 20.0586 16.7266C20.5273 17.0781 21.3516 17.4453 22.5312 17.8281C23.7109 18.2031 24.6797 18.6094 25.4375 19.0469C27.2812 20.1094 28.2031 21.5742 28.2031 23.4414C28.2031 24.9336 27.6406 26.1055 26.5156 26.957C25.3906 27.8086 23.8477 28.2344 21.8867 28.2344C20.5039 28.2344 19.25 27.9883 18.125 27.4961C17.0078 26.9961 16.1641 26.3164 15.5938 25.457C15.0312 24.5898 14.75 23.5938 14.75 22.4688H18.875C18.875 23.3828 19.1094 24.0586 19.5781 24.4961C20.0547 24.9258 20.8242 25.1406 21.8867 25.1406C22.5664 25.1406 23.1016 24.9961 23.4922 24.707C23.8906 24.4102 24.0898 23.9961 24.0898 23.4648Z" fill="#FFCA28"/>
</svg>
