<svg width="108" height="105" viewBox="0 0 108 105" fill="none" xmlns="http://www.w3.org/2000/svg">
<ellipse rx="22.9721" ry="22.6255" transform="matrix(0.37196 0.928249 -0.928529 0.37126 52.129 50.9958)" fill="white"/>
<path d="M58.702 40.757C57.2797 41.4989 56.4364 42.585 56.1721 44.0152C55.8982 45.427 55.9964 47.6197 56.4668 50.5935C56.9371 53.5673 57.1943 56.0649 57.2383 58.0862C57.3976 64.6529 55.233 69.1069 50.7445 71.4483C48.5095 72.6142 46.2051 72.9939 43.8312 72.5873C41.4293 72.172 39.1358 71.0186 36.9508 69.1272C34.7474 67.2455 32.87 64.8177 31.3187 61.8438C29.8059 58.9438 28.9694 56.0788 28.809 53.2488C28.6389 50.4003 29.182 47.8377 30.4382 45.5611C31.6759 43.2942 33.523 41.52 35.9797 40.2384L41.0383 49.9359C39.3944 50.7934 38.3848 51.9662 38.0097 53.4543C37.6249 54.9238 37.8805 56.5175 38.7766 58.2354C39.6824 59.9717 40.7881 61.1454 42.0938 61.7567C43.3715 62.3591 44.6014 62.3519 45.7835 61.7353C46.8179 61.1957 47.4709 60.1501 47.7424 58.5986C47.9955 57.0568 47.8471 54.6552 47.2973 51.3939C46.729 48.1422 46.4947 45.3508 46.5944 43.0195C46.8326 37.3498 49.159 33.3636 53.5736 31.0607C57.1016 29.2204 60.566 29.105 63.9669 30.7146C67.3678 32.3242 70.2774 35.4472 72.6959 40.0834C74.4014 43.3529 75.366 46.621 75.5898 49.8879C75.7855 53.1459 75.2191 55.9791 73.8907 58.3874C72.5341 60.7869 70.5259 62.6804 67.866 64.0678L62.7786 54.315C64.9397 53.1877 66.2484 51.8001 66.7047 50.1522C67.1328 48.4955 66.6917 46.4111 65.3813 43.8991C64.543 42.2921 63.5413 41.205 62.3761 40.638C61.1828 40.0621 59.9581 40.1017 58.702 40.757Z" fill="#FFCA28"/>
</svg>
